<?xml version="1.0" standalone="no"?>
<!DOCTYPE svg PUBLIC "-//W3C//DTD SVG 20010904//EN"
 "http://www.w3.org/TR/2001/REC-SVG-20010904/DTD/svg10.dtd">
<svg version="1.0" xmlns="http://www.w3.org/2000/svg"
 width="256.000000pt" height="256.000000pt" viewBox="0 0 256.000000 256.000000"
 preserveAspectRatio="xMidYMid meet">
<metadata>
Created by potrace 1.11, written by Peter Selinger 2001-2013
</metadata>
<g transform="translate(0.000000,256.000000) scale(0.100000,-0.100000)"
fill="#000000" stroke="none">
<path d="M1228 2525 c-2 -1 -38 -5 -81 -8 -43 -4 -81 -8 -85 -11 -4 -2 -23 -7
-43 -10 -65 -10 -202 -58 -294 -102 -431 -206 -696 -636 -693 -1122 1 -194 43
-373 128 -545 141 -285 332 -461 650 -600 118 -52 319 -91 462 -90 203 1 378
43 573 139 336 165 572 476 650 859 31 157 31 329 -1 504 -11 64 -65 215 -104
296 -172 353 -499 597 -900 670 -74 13 -254 27 -262 20z m206 -220 c67 -12 75
-13 114 -26 214 -69 362 -157 486 -290 372 -400 368 -1025 -8 -1427 -147 -157
-403 -285 -621 -309 -276 -31 -544 43 -772 214 -206 155 -336 384 -389 683 -7
39 -7 224 -1 255 3 11 8 40 12 65 29 182 142 397 284 540 155 157 357 258 586
294 81 13 234 13 309 1z"/>
<path d="M703 1986 c-9 -13 -7 -1425 1 -1434 4 -4 70 -7 147 -7 118 0 139 2
139 15 1 8 1 149 2 313 0 295 0 297 22 301 11 3 139 4 284 4 234 -1 262 -2
263 -17 0 -9 1 -151 1 -316 l1 -300 146 0 146 0 0 725 0 725 -135 1 c-74 0
-140 -2 -146 -4 -8 -2 -11 -82 -11 -276 0 -150 -2 -276 -5 -282 -4 -5 -118 -9
-285 -9 l-278 0 -2 230 c-1 127 -2 255 -2 285 l-1 55 -141 0 c-77 0 -143 -4
-146 -9z"/>
</g>
</svg>
